PathFileType	4	(X/Y/Z)	/Users/niels/Desktop/University/Third Semester/Perception and Action/Exam/Gymnastics Motion Tracking/Code for Gym Tracking/Analyzed Data/Webcam_Backflip/id1_9_trajectory_Sports2D/id1_9_trajectory_Sports2D_px_person00.trc
DataRate	CameraRate	NumFrames	NumMarkers	Units	OrigDataRate	OrigDataStartFrame	OrigNumFrames
29.714285714285715	29.714285714285715	7	22	m	29.714285714285715	13	105
Frame#	Time	Hip			RHip			RKnee			RAnkle			RBigToe			RSmallToe			RHeel			LHip			LKnee			LAnkle			LBigToe			LSmallToe			LHeel			Neck			Head			Nose			RShoulder			RElbow			RWrist			LShoulder			LElbow			LWrist		
		X1	Y1	Z1	X2	Y2	Z2	X3	Y3	Z3	X4	Y4	Z4	X5	Y5	Z5	X6	Y6	Z6	X7	Y7	Z7	X8	Y8	Z8	X9	Y9	Z9	X10	Y10	Z10	X11	Y11	Z11	X12	Y12	Z12	X13	Y13	Z13	X14	Y14	Z14	X15	Y15	Z15	X16	Y16	Z16	X17	Y17	Z17	X18	Y18	Z18	X19	Y19	Z19	X20	Y20	Z20	X21	Y21	Z21	X22	Y22	Z22
13	0.4375	1.0348570134202273	-0.31325472402253396	0.0	1.0314830137661002	-0.31114397309324204	0.0	1.1267489831173567	-0.32540697807276087	0.0	1.1052663633106774	-0.24303629191486076	0.0	1.1536588948526505	-0.2742027542738065	0.0	1.1514525187201725	-0.2742427276483299	0.0	1.0985630411068241	-0.23222034465334	0.0	1.0409582564144415	-0.3144446492843389	0.0	1.139872285846187	-0.3306898453054613	0.0	1.1100594269116915	-0.25067920236750996	0.0	1.1538356781964996	-0.29002523156019194	0.0	1.142075366403265	-0.2388463350280659	0.0	1.1049303322909183	-0.238870435614536	0.0	1.0776757183989178	-0.4599080471966983	0.0	1.091181648790226	-0.5256755865225392	0.0	1.1015879562610524	-0.5064127815155482	0.0	1.053171103251136	-0.44539145640487826	0.0	1.0423592231260463	-0.38638526370440035	0.0	1.0516785981490053	-0.3590483662694689	0.0	1.0811289453833173	-0.4423261555853462	0.0	1.0948566083046885	-0.35332704628863665	0.0	1.126990872223561	-0.33791123964410025	0.0
14	0.47115384615384615	1.052315788593832	-0.30301345857387835	0.0	1.0487732458031864	-0.3015113420611864	0.0	1.140953456506053	-0.3518379962940093	0.0	1.1566314658093952	-0.2721104003724473	0.0	1.2028444577188764	-0.3039281883399937	0.0	1.2035934202638354	-0.30194445762918193	0.0	1.1553368490878952	-0.25930746054302384	0.0	1.0592454725803915	-0.3048644988221722	0.0	1.1513948547664519	-0.36094621792676845	0.0	1.1625317956825583	-0.2820453526521735	0.0	1.207117636791713	-0.3218695059134343	0.0	1.2013673166697818	-0.2845413099590635	0.0	1.1627569112297407	-0.26785739763108857	0.0	1.0487879387755108	-0.4598212699830231	0.0	1.0417708232966625	-0.5305896187343198	0.0	1.0613709161754803	-0.5120706349681462	0.0	1.0282625262470406	-0.44544749070546835	0.0	1.042359991393236	-0.3940986774996955	0.0	1.0534276176164847	-0.37511935931566853	0.0	1.0571483032241	-0.44501910683436696	0.0	1.0973359340669797	-0.3678877450544521	0.0	1.1388670729063874	-0.36878955049645007	0.0
15	0.5048076923076923	1.0726613763858985	-0.3027485984824237	0.0	1.0695175840822215	-0.30263039424294336	0.0	1.1497635313723378	-0.38197327232133205	0.0	1.1991141716241698	-0.3210503559243004	0.0	1.2354826921584119	-0.3559657029770656	0.0	1.2402310505401035	-0.3516804116804241	0.0	1.204203470646846	-0.30760804862059876	0.0	1.079786174879981	-0.30528495176461057	0.0	1.1569591235786971	-0.3936373744961848	0.0	1.2069135350381583	-0.3319433641434478	0.0	1.245064258199373	-0.3749322090358141	0.0	1.2457869483501411	-0.35063436568327533	0.0	1.2135758796865777	-0.31738999933532225	0.0	1.0235841091909477	-0.45315799841301246	0.0	0.9963168534201131	-0.5241146009922094	0.0	1.023669833235332	-0.5076533793217881	0.0	1.00902388458286	-0.43948128298125166	0.0	1.0478810286201823	-0.3993367303809774	0.0	1.0494961177983169	-0.3923411736917777	0.0	1.0348471687660843	-0.44204146024418856	0.0	1.0963471466229084	-0.38684010100035365	0.0	1.1400882904720342	-0.40523094685796357	0.0
16	0.5384615384615384	1.0938654833851775	-0.31336539944309383	0.0	1.0911405637102467	-0.3147976163853332	0.0	1.1550226555744334	-0.4153218445270375	0.0	1.228589512887645	-0.38553298065918706	0.0	1.2498076269808756	-0.425953206553074	0.0	1.2583967804110554	-0.4193563396782538	0.0	1.2400309881888687	-0.3736966481706971	0.0	1.1010317844489754	-0.3163341501345372	0.0	1.1597717240143566	-0.42717606881027004	0.0	1.239372946271905	-0.3961790372203201	0.0	1.2648883488653704	-0.4446472044678883	0.0	1.2715932656001645	-0.43033074462960663	0.0	1.252407494740736	-0.3834922008486523	0.0	1.0054043784536182	-0.4423080827507008	0.0	0.9595300521312681	-0.5088741406268749	0.0	0.9929154550330057	-0.4958592799923749	0.0	0.9967305499998252	-0.42938519441159345	0.0	1.0535689907617236	-0.4043551926357682	0.0	1.0385429146182206	-0.40938942791872124	0.0	1.0176965033936178	-0.4349478338692374	0.0	1.091170855492073	-0.4085931886168117	0.0	1.1296753244398572	-0.44439306962347686	0.0
17	0.5721153846153846	1.1138353664696583	-0.33469424193965314	0.0	1.1111213472970094	-0.33735475217466393	0.0	1.158674686800088	-0.4520838411826542	0.0	1.2435678364982303	-0.4595090425022383	0.0	1.248780188451348	-0.5054832938363338	0.0	1.2592516713691297	-0.49715439340076806	0.0	1.2602271442294057	-0.45163844376259915	0.0	1.1211952060744683	-0.3375261314167885	0.0	1.1626238884243647	-0.46163956556141156	0.0	1.2584043136416634	-0.4688323912514073	0.0	1.2679359117225868	-0.5224856260328968	0.0	1.279485606870752	-0.5148698148295537	0.0	1.2765593618135955	-0.4598917026340724	0.0	0.9962102323648245	-0.4301374460485478	0.0	0.9344458945871456	-0.4880931379638424	0.0	0.9720713538262835	-0.4801624666783924	0.0	0.9919290911085505	-0.4182513633460431	0.0	1.0545279282616595	-0.4109949250513189	0.0	1.0211623584299208	-0.42527760303499657	0.0	1.0081725129563934	-0.4261264799530991	0.0	1.08155372104191	-0.4312152231506478	0.0	1.1079297420264094	-0.48227646606096436	0.0
18	0.6057692307692307	1.1309149080532586	-0.36575226018478996	0.0	1.127574942107038	-0.36924003636031555	0.0	1.1614538770921836	-0.49259755320374266	0.0	1.2450216315367346	-0.536909156055978	0.0	1.2378304229704742	-0.586093737155012	0.0	1.2472190709546753	-0.5772232812177539	0.0	1.2650505848191285	-0.5344749036048208	0.0	1.1386901348431737	-0.36776876976683276	0.0	1.1667182954067628	-0.4982231533018837	0.0	1.265229954838609	-0.5436847573943567	0.0	1.2590535471868476	-0.5999521222431927	0.0	1.2740320470457343	-0.596380335425387	0.0	1.2865093318717304	-0.5394661787152213	0.0	0.9963340349905982	-0.419722311393584	0.0	0.9222331359733423	-0.46500271868642284	0.0	0.9623535345977599	-0.46413971279047905	0.0	0.9948378651346134	-0.40970903388729313	0.0	1.049453853024555	-0.42067000974978963	0.0	1.0009022926536266	-0.44102932470644646	0.0	1.0072483922341375	-0.41856943879776803	0.0	1.0682782496302512	-0.45258178964175777	0.0	1.0768653540039521	-0.5140405279643899	0.0
19	0.6394230769230769	1.1442897252216844	-0.405124672985618	0.0	1.139654619182827	-0.4090428940635839	0.0	1.1629154249825506	-0.5370079215279874	0.0	1.2359614490974935	-0.6128368968864537	0.0	1.2217295257006011	-0.6618726702319607	0.0	1.2278873939051598	-0.6537318937170813	0.0	1.2574038178439426	-0.6160399307828041	0.0	1.1526487237658327	-0.4057569263942281	0.0	1.1716565055284225	-0.5384173301043331	0.0	1.2630002698386362	-0.6161336986753073	0.0	1.2441147943298523	-0.6717208144214063	0.0	1.2612593141374095	-0.670379667084082	0.0	1.285298926608152	-0.6166840142760401	0.0	1.0048327518346916	-0.41417055745091275	0.0	0.9227002236907627	-0.4428525180913061	0.0	0.963314277656364	-0.4510004237449138	0.0	1.0052022789830894	-0.40700306716046664	0.0	1.0403663859631553	-0.43418668692602447	0.0	0.9822713183817009	-0.45801594508129356	0.0	1.0146065173956145	-0.4153929478766429	0.0	1.0533381051933803	-0.470827433538636	0.0	1.0408196535734033	-0.5350888591065112	0.0
